<svg xmlns="http://www.w3.org/2000/svg" xmlns:xlink="http://www.w3.org/1999/xlink" viewBox="0 0 912 352"><g fill="#a3b739"><circle cx="183.2" cy="18.9" r="9.2"/><circle cx="298.8" cy="64.7" r="9.2"/><circle cx="280.4" cy="199.3" r="9.2"/><circle cx="207.8" cy="294" r="9.2"/><circle cx="164.7" cy="272.9" r="9.2"/><circle cx="185" cy="335.1" r="9.2"/><circle cx="72.9" cy="291" r="9.2"/><circle cx="80.7" cy="242.9" r="9.2"/><circle cx="23.7" cy="179.2" r="9.2"/><circle cx="68.1" cy="65.2" r="9.2"/><circle cx="161.9" cy="55.5" r="9.2"/><circle cx="294.2" cy="139.7" r="9.2"/><circle cx="235.2" cy="94.1" r="9.2"/><circle cx="341.6" cy="179" r="9.2"/><circle cx="89.8" cy="155" r="9.2"/><circle cx="294.5" cy="290.1" r="9.2"/><path d="M181.7 71.8l-75.6 27.9 7.4 11.8 19.5 18.1 7.9 8 30.1-12.4 10.7-7.5 3.2-25.5-3.2-20.4zm-31.9 47.6c-4.3 0-7.8-3.6-7.8-8s3.5-8 7.8-8 7.8 3.6 7.8 8-3.5 8-7.8 8z"/><path d="M122.7 123.1l-20.3 54.4 21.5.2 17-40.1zm4.9 114.1l12.4-14 40.8 14.7V262l-53.2-21.8zm98.9-19.3l18.1-36.7h21.5v4.9l-15.6 27.8-3.2 10.4-4.4 12.9zm14.1-96.7s-51.1-19-55.9-25.8v16l1 3.4.8 2.8 20.4 13.4 17 4.6h3.1l13.6-14.4zm45.7 50.7l-7.4-14.7-18.5-49.9-33.7 32s3.1 12.4 2.8 13.4c-.2 1.1 16.7 25.9 16.7 25.9h44.5v-1.1l-4.4-5.6zm-32.8-15a8.24 8.24 0 0 1-8.2-8.2 8.24 8.24 0 0 1 8.2-8.2 8.24 8.24 0 0 1 8.2 8.2 8.24 8.24 0 0 1-8.2 8.2zM224 223.2l-40 14.7 1.5 45.4h1.7l15.7-10.6 15.1-7.6 34.7-8.7 1.8-4-30.5-29.2zm-4.7 28.1a8.24 8.24 0 0 1-8.2-8.2 8.24 8.24 0 0 1 8.2-8.2 8.24 8.24 0 0 1 8.2 8.2 8.24 8.24 0 0 1-8.2 8.2zm-96.6-70.1h-43l29.1 69.8 32.3-31.6-18.4-38.2zm-10.2 32.5a8.24 8.24 0 0 1-8.2-8.2 8.24 8.24 0 0 1 8.2-8.2 8.24 8.24 0 0 1 8.2 8.2c.1 4.6-3.6 8.2-8.2 8.2z"/></g><g fill="#f9f9f9"><path d="M179.4 25.9l.5 41.3-.3 104.4L76 70.2 72.3 74l102.1 102.2h-142l-.3 6.8h144.1l-99.4 98.8 4.5 3.8 97.5-95.5 2 135h6.2l-.5-135.4 99.5 97.1 4.5-4.6-98.3-98.8 141.4.9.3-6.3-141.5-1L295.2 74.8l-4.4-3.8-104 101.8 1-146.9z"/><path d="M187.7 40.7s25 25.8 91.2 42l-6.3 6.1s-60.3-16-85-37.6l.1-10.5zm134.2 137.9s-25.6 24.2-44.9 95.1l-4.9-6.5s17.1-64.3 40.4-88.7l9.4.1zM185 90.4s17.7 18.2 64.7 29.6l-4.4 4.3S202.5 113 185 97.8v-7.4zm-3.2 21.1s13.7 15.1 50 24.6l-3.4 3.6s-33.1-9.4-46.6-22v-6.2zm4.8 32.6s1.1 5.4 21.2 10.8l-2.1 2.9s-15-2.5-19.3-9.6l.2-4.1zm22.7 9.7s-1.2 8.9 9.8 27.8l-3.2.7s-8.6-13.4-9.2-25.4l2.6-3.1zm56.2-51.7l.5-.5c-.3-.1-.5-.1-.8-.2l.3.7zm-40.4-14c-27.2-11.6-38.2-23-38.2-23l-.1 9.2c13.5 10.9 22.6 14.4 35.9 19.9l2.4-6.1zm45.7 96s-17.3 16-25.1 53.2l-5-5.1s9.4-37.1 23-48.1h7.1zm-22.7 0s-11.3 9.1-18.1 37.3l-6-6s9.8-27.7 16.1-31.4h8zm-30-.6s-6.6 4.6-9.4 16.4l-2.7-2.7s2.8-9.6 8.2-13.9l3.9.2zm-15.2 22s-8 .3-16.3 8.8l-.3-4.2s6.4-5.5 13.3-8.3l3.3 3.7zm59 48s3.8-26.3 16.5-45.6l-5.5-3s-11.1 13.5-16.1 43.4l5.1 5.2zm-171 22.7s56.1 5.6 89.9 34.7l-.3-8.2s-39.4-28.3-84.8-31.2l-4.8 4.7zm17.9-17.6s32.5 6 45.6 14.5l2.9-5.7s-12.9-9-43.6-13.7l-4.9 4.9zm15.9-15.3s38.3 7.5 55.4 21.2l-.3-8.7s-15.5-12.8-49.7-17.9l-5.4 5.4zm-51.8-60.4s30.3 42.9 31.9 70.8l5.9-5.6s-5.8-36.5-30.6-66.1l-7.2.9zm47.2.1s14.3 17.7 20 40.3l5.9-5.6s-.5-11.2-18.3-34.7h-7.6zm21 44s26.8 2.9 38.4 14.2v-7.8s-10.9-9.2-33.2-11.5l-5.2 5.1zm21.1-20.7s10.5.4 17 7.6l-.1-5.4s-2.6-4.4-13.2-5.8l-3.7 3.6zM148.7 183s8.4 9 8.1 19.4l4-4.1s.3-6.1-5.9-15.3h-6.2zM85.5 79.6s48.5-10.5 68-23.8l2.5 6.9s-29.6 16.2-64.5 22.9l-6-6zm18.8 18.3s42.7-9.8 75.4-29.6l.2 7.4s-35.1 22.1-69.3 28.3l-6.3-6.1zm74.7 20.4s-21.2 11.8-38.9 14.6l5.4 5.3s24.7-6.7 34.2-14.5v-6l-.7.6zm-19 34.2s10.5.1 19.6-7.2v6.4s-8.4 5.3-15.6 4.7l-4-3.9zm-.6 8.7s-3.1 12.3-5.4 15h-5.4s6.3-9.5 6.7-19l4.1 4zm-18.5-18.5s-3.2 18.5-13.3 33.5h-6.8s15.7-29.1 15.1-38.6l5 5.1zm-17-17.1s-5 31.4-18.6 50.6h-8.5s13.7-15.3 21.8-55.8l5.3 5.2zm-18.3-18.3s-2.9 28.1-11.6 41l-5.9-1.2s8.4-17.6 12.4-44.9l5.1 5.1zM87.1 88.8s-6.2 48-30.2 87.4h-8.2s22.7-34.6 32.5-93.3l5.9 5.9zm177 17s10.5 43.5 31.6 72.2l-7.7-.1s-23.4-32.7-29.7-66.4l5.8-5.7zm-.1 71.9s-5.2-6.3-11.3-19.9l4.9-3.6s7.6 19 13.1 23.5H264zm-15.7-.2s-16.4-19.6-17.9-38.3l-5.4 5.3s4.7 18.2 15.1 32.9l8.2.1zm32.9-88.7s5.6 25.7 13.3 42l-5.1 2.3S280.6 119 275.9 94l5.3-5.2zm-8.6 184.9s-36.5 5.2-55.8 17.5l-3.8-5.3s20.6-12.4 54.6-17.1l5 4.9zm-15.2-14.8s-40.9 1-70.4 28.8l.3-7.7s17.8-19.5 63.9-26.3h.9l5.3 5.2zm-70.6-15.8s16.8-14.1 37.5-16.5l-5.3-5.2s-20.8 2.3-32.3 12.9l.1 8.8zm-65.9-5.2s.3-12-7.4-23.8l5.4-3.4s5.5 8.9 7.1 22.3l-5.1 4.9zm66 27.2s13.2-12 25-15.8l-1.3-6.2s-14.7 5.4-23.7 14v8zM44.7 182.5s28.2 29.8 29.2 54.3l7.1-2.6s-7.6-31.5-28.8-51.7h-7.5z"/><use xlink:href="#B"/><path d="M165 262c-5.6 0-10.4 4.8-10.6 10.6-.3 5.9 4.1 10.6 9.7 10.6s10.4-4.8 10.6-10.6c.3-5.8-4-10.6-9.7-10.6zm-.7 17.4c-3.5 0-6.3-3-6.1-6.7s3.2-6.7 6.7-6.7 6.3 3 6.1 6.7-3.2 6.7-6.7 6.7z"/><use xlink:href="#C"/><use xlink:href="#C" x="-22.5" y="40.7"/><use xlink:href="#B" x="-8.1" y="48.6"/><path d="M113 194.3c-5.6 0-10.4 4.8-10.6 10.6s4.1 10.6 9.7 10.6 10.4-4.8 10.6-10.6-4.1-10.6-9.7-10.6zm-.8 17.3c-3.5 0-6.3-3-6.1-6.7s3.2-6.7 6.7-6.7 6.3 3 6.1 6.7-3.1 6.7-6.7 6.7zM68.3 54.1c-5.6 0-10.4 4.8-10.6 10.6-.3 5.9 4.1 10.6 9.7 10.6S77.8 70.6 78 64.7c.3-5.8-4.1-10.6-9.7-10.6zm-.7 17.4c-3.5 0-6.3-3-6.1-6.7s3.2-6.7 6.7-6.7 6.3 3 6.1 6.7-3.2 6.7-6.7 6.7zM24.2 168c-5.6 0-10.4 4.8-10.6 10.6-.3 5.9 4.1 10.6 9.7 10.6s10.4-4.8 10.6-10.6c.2-5.9-4.1-10.6-9.7-10.6zm-.8 17.3c-3.5 0-6.3-3-6.1-6.7s3.2-6.7 6.7-6.7 6.3 3 6.1 6.7c-.1 3.7-3.1 6.7-6.7 6.7zm156.4-93.1s-7 8.2-24.2 13.6l2.1 5.7s11.3-3.6 22.1-11.1v-8.2z"/><path d="M150.3 100.9c-5.6 0-10.4 4.8-10.6 10.6-.3 5.9 4.1 10.6 9.7 10.6s10.4-4.8 10.6-10.6c.2-5.9-4.1-10.6-9.7-10.6zm-.8 17.3c-3.5 0-6.3-3-6.1-6.7s3.2-6.7 6.7-6.7 6.3 3 6.1 6.7-3.1 6.7-6.7 6.7zM341 168c-5.6 0-10.2 4.8-10.2 10.6s4.5 10.6 10.2 10.6 10.2-4.8 10.2-10.6S346.6 168 341 168zm0 17.3c-3.5 0-6.4-3-6.4-6.7s2.9-6.7 6.4-6.7 6.4 3 6.4 6.7-2.9 6.7-6.4 6.7z"/><use xlink:href="#D"/><path d="M253.6 137.7c-5.6 0-10.4 4.8-10.6 10.6-.3 5.9 4.1 10.6 9.7 10.6s10.4-4.8 10.6-10.6-4.1-10.6-9.7-10.6zm-.8 17.3c-3.5 0-6.3-3-6.1-6.7s3.2-6.7 6.7-6.7 6.3 3 6.1 6.7c-.1 3.7-3.2 6.7-6.7 6.7z"/><use xlink:href="#E"/><use xlink:href="#C" x="91.3" y="-228.9"/><use xlink:href="#E" x="-133.4" y="-84"/><use xlink:href="#D" x="-110.8" y="-270.9"/><use xlink:href="#D" x="-204.2" y="-135"/><path d="M234.1 82.7c-6.1 0-11.2 5.2-11.5 11.6s4.4 11.6 10.5 11.6 11.2-5.2 11.5-11.6c.3-6.5-4.4-11.6-10.5-11.6zm-.8 18.8c-3.9 0-6.8-3.3-6.7-7.3.2-4 3.4-7.3 7.3-7.3s6.8 3.3 6.7 7.3c-.2 4.1-3.5 7.3-7.3 7.3zm47.5 88c-5.2 0-9.6 4.4-9.8 9.8s3.8 9.8 9 9.8 9.6-4.4 9.8-9.8-3.8-9.8-9-9.8zm-.7 16c-3.3 0-5.8-2.8-5.7-6.2s2.9-6.2 6.2-6.2 5.8 2.8 5.7 6.2-2.9 6.2-6.2 6.2zm-61 26.5c-5.8 0-10.6 5-10.6 11.1s4.7 11.1 10.6 11.1c5.8 0 10.6-5 10.6-11.1S225 232 219.1 232zm0 18.1c-3.7 0-6.7-3.1-6.7-7s3-7 6.7-7 6.7 3.1 6.7 7c0 3.8-3 7-6.7 7z"/></g><path d="M364.6 197.5h15.8v3l-5.8.9 6.5 22.6 2.4 10.1 2.4-10.2 7.3-26.4h6l7.3 26.4 2.3 10.3 2.6-10.2 6.4-22.5-5.6-.9v-3h14.3v3l-4 .9-11.3 37h-5.9l-7.9-27.1-2-9.2-1.7 9.2-7.6 27.1h-5.7l-11.6-37.1-3.9-.9v-3zm73.6 35.4c-3-3.9-4.5-9-4.5-15.4 0-4.1.8-7.8 2.4-11s3.8-5.7 6.7-7.5 6-2.7 9.6-2.7c4.3 0 7.7 1.2 10.1 3.7s3.7 6 3.9 10.7c0 3-.1 5.1-.4 6.4h-25.9c0 5.1 1.2 9.3 3.5 12.5s5.5 4.8 9.7 4.8c2 0 4.1-.4 6.3-1.1 2.1-.7 3.8-1.6 4.9-2.6l1.2 2.7c-1.4 1.5-3.5 2.7-6.1 3.7-2.7 1-5.4 1.5-8.1 1.5-6 .1-10.3-1.8-13.3-5.7zm21.5-19.1c.1-1 .2-2.1.2-3.2 0-3.2-.8-5.7-2.3-7.6s-3.7-2.8-6.8-2.8c-6.6 0-10.3 4.6-10.8 13.7h19.7zm13.9-34.2l10.6-1.2h.1l1.4 1v22.1c1.5-1.4 3.3-2.6 5.4-3.6s4.4-1.5 7-1.5c2.9 0 5.5.7 7.9 2.1s4.3 3.6 5.8 6.5c1.5 3 2.2 6.7 2.2 11.1 0 4.2-.8 8-2.5 11.4s-4.1 6.1-7.3 8.1-6.8 3-10.9 3c-3 0-5.9-.3-8.6-.9s-4.4-1.2-4.9-1.8v-53l-6.3-.7v-2.6zm16.5 22.7c-1.8 1-3.2 2-4.3 3.2v26.9c.3.8 1.3 1.4 2.9 1.9s3.3.7 5.3.7c4.2 0 7.5-1.5 10-4.6s3.8-7.6 3.8-13.6c0-5.3-1.1-9.3-3.4-12-2.3-2.6-5.1-4-8.5-4-2.1.1-4 .6-5.8 1.5z" fill="#fff"/><path d="M535.4 238l-6.6-1.6c-1.5-.5-2.6-.7-3.3-.7l.6-12.7h6.3l1.7 8.7c.5.6 1.4 1.1 2.7 1.6s2.9.7 4.8.7c2.8 0 4.8-.6 6.2-1.8s2.1-2.9 2.1-5c0-1.5-.4-2.8-1.3-3.9s-2.1-2.1-3.7-3.1l-6.4-3.2c-3.6-1.6-6.6-3.7-9.1-6.2s-3.7-5.8-3.7-9.9c0-2.5.7-4.8 2-6.9s3.3-3.8 6-5c2.7-1.3 6-1.9 10-1.9 2.4 0 4.5.2 6.3.5s3.7.7 5.7 1.3c1.1.4 1.9.6 2.5.6l-.4 12.1h-6.2l-1.6-8.3c-.3-.4-1-.8-2.1-1.1s-2.3-.5-3.7-.5c-2.5 0-4.4.6-5.6 1.8s-1.9 2.7-1.9 4.5c0 1.6.5 3.1 1.6 4.3s2.3 2.3 3.8 3.1 3.7 2 6.8 3.5c2.4 1.2 4.5 2.4 6.3 3.6s3.3 2.7 4.6 4.6 1.9 4.1 1.9 6.7c0 2.5-.6 4.9-1.8 7.2s-3.2 4.2-6.1 5.8c-2.9 1.5-6.7 2.3-11.4 2.3-2.6-.5-4.9-.7-7-1.1zm37.5-29.8c1.7-3 4-5.3 7-6.8s6.1-2.2 9.6-2.2c5.7 0 10.2 1.7 13.4 5.1s4.9 8.2 4.9 14.3c0 4.5-.9 8.2-2.6 11.2s-4 5.2-6.9 6.7a21.96 21.96 0 0 1-9.7 2.2c-5.7 0-10.1-1.7-13.3-5.1s-4.9-8.2-4.9-14.3c-.1-4.4.8-8.1 2.5-11.1zm21.1 22.2c1.1-2.3 1.6-6 1.6-11 0-5.3-.5-9.2-1.5-11.7s-2.7-3.8-5.1-3.8c-4.4 0-6.7 4.8-6.7 14.5 0 5.3.5 9.1 1.6 11.7 1.1 2.5 2.8 3.8 5.2 3.8 2.3 0 3.9-1.2 4.9-3.5zm28.2-24.5H617v-4.2l5.3-1.4v-2.9c0-3 .8-5.8 2.4-8.3s3.8-4.5 6.6-5.9c2.7-1.4 5.7-2.2 8.9-2.2 1.7 0 3.2.2 4.5.7v9.8c-.5-.5-1.5-1.1-2.9-1.6s-2.9-.8-4.3-.8c-1.5 0-2.6.4-3.2 1.2s-1 2-1 3.8v6h8.1v5.6h-8.1v27l6.9.6v4.5H617v-4.5l5.2-.6v-26.8zm32.5 30.5c-1.4-1.4-2.1-3.5-2.1-6.4v-24.2h-4.1v-3.9l1.4-.5c1.1-.4 2-.7 2.9-1.2.9-.9 1.6-2 2.2-3.4.7-1.6 1.4-3.9 2.2-6.9h6.3l.4 10.2h9.7v5.7H664v18l.2 5.2c.1 1 .4 1.6.8 1.9s1.1.4 2.1.4c2.1 0 4.1-.4 6-1.1l1.4 4.3c-1.3 1-3.1 1.9-5.6 2.7s-5 1.2-7.5 1.2c-3 .1-5.2-.6-6.7-2z" fill="#a3b739"/><g fill="#fff"><path d="M688.8 236.9c-1.3-1.2-2-3.3-2-6.4v-28.7h-5.5V199c2.4-.5 3.8-.9 4.2-1.2.7-.4 1.3-1.1 1.6-2.3.3-.7.7-2 1.2-3.9l1.1-4.4h3.3v10.3h12.9v4.3h-12.9v23.6c0 2.8.1 4.8.3 5.9s.6 1.9 1.2 2.2 1.6.5 3.1.5c1.4 0 3-.2 4.7-.6s3.1-.8 3.9-1.2l.9 2.8c-1.1.9-3 1.7-5.5 2.5-2.6.8-4.8 1.2-6.7 1.2-2.5 0-4.5-.6-5.8-1.8zm31.9-4c-3-3.9-4.5-9-4.5-15.4 0-4.1.8-7.8 2.4-11s3.8-5.7 6.7-7.5 6-2.7 9.6-2.7c4.3 0 7.7 1.2 10.1 3.7s3.7 6 3.9 10.7c0 3-.1 5.1-.4 6.4h-25.9c0 5.1 1.2 9.3 3.5 12.5s5.5 4.8 9.7 4.8c2 0 4.1-.4 6.3-1.1 2.1-.7 3.8-1.6 4.9-2.6l1.2 2.7c-1.4 1.5-3.5 2.7-6.1 3.7-2.7 1-5.4 1.5-8.1 1.5-6 .1-10.3-1.8-13.3-5.7zm21.4-19.1c.1-1 .2-2.1.2-3.2 0-3.2-.8-5.7-2.3-7.6s-3.7-2.8-6.8-2.8c-6.6 0-10.3 4.6-10.8 13.7h19.7zm19-6.6c1.5-3.3 3.8-5.9 6.8-7.8s6.7-2.9 11.1-2.9c1.9 0 3.7.2 5.5.7a66.51 66.51 0 0 1 4.7 1.5l-.3 10.4h-3.6l-1.5-7c-.3-1.5-2.4-2.2-6.3-2.2-3.8 0-6.8 1.5-9.1 4.4s-3.4 6.9-3.4 11.9c0 6 1.2 10.6 3.6 13.7s5.6 4.7 9.5 4.7c2 0 4-.3 5.9-1s3.5-1.5 4.8-2.3l1.2 2.4c-1.4 1.4-3.3 2.6-5.8 3.6s-4.9 1.5-7.3 1.5c-3.8 0-7.1-.9-9.8-2.7a16.43 16.43 0 0 1-6.1-7.4c-1.4-3.1-2.1-6.7-2.1-10.6-.1-4.1.7-7.7 2.2-10.9zm44.1-24.3l-6.5-.7v-2.7l10.8-1.2h.1l1.4.9v17.3l-.1 6c1.6-1.4 3.7-2.8 6.5-4.1s5.6-2 8.3-2c3.1 0 5.4.6 7.1 1.7 1.7 1.2 2.9 3 3.6 5.4s1 5.8 1 9.9v20.5l5.3.6v3.1h-16.3v-3.1l5.1-.6v-20.6c0-3.1-.2-5.5-.6-7.3-.4-1.7-1.2-3.1-2.4-3.9-1.2-.9-3-1.3-5.3-1.3-1.9 0-4 .5-6.3 1.4a26.02 26.02 0 0 0-5.9 3.4v28.3l5.4.6v3.1h-15.8v-3.1l4.6-.5v-51.1zm53.6 49.3c.5.8 1.6 1.6 3.3 2.2s3.5.9 5.5.9c5.9 0 8.9-2.2 8.9-6.5 0-2-.8-3.6-2.5-4.8-1.6-1.2-4.5-2.6-8.4-4.1-3.9-1.4-6.8-3.1-8.6-5s-2.7-4.5-2.7-7.8c0-2.1.6-3.9 1.9-5.5s3-2.8 5.2-3.6 4.5-1.3 7-1.3 4.5.2 6.2.7 3.3 1 5 1.6v8.7H876l-1.3-5.3c-.3-.6-1.2-1.2-2.6-1.6s-2.9-.7-4.5-.7c-2.3 0-4.2.5-5.7 1.6-1.5 1-2.2 2.4-2.2 4.2 0 1.6.4 2.8 1.1 3.9.7 1 1.6 1.8 2.7 2.4s2.5 1.3 4.4 2.1l1.4.6c2.8 1.1 5 2.1 6.7 3s3.1 2.2 4.2 3.7 1.7 3.4 1.7 5.7c0 3.6-1.4 6.4-4.1 8.5s-6.4 3.1-10.9 3.1c-2.1 0-4.5-.3-7.1-1-2.7-.7-4.7-1.4-6-2v-9.2h3.9l1.1 5.5zm-478.1-72.3c.5 0 1 0 1.4-.1.4 0 .8-.1 1.2-.2s.8-.2 1.1-.4.7-.3 1-.5v-4.3h-3c-.2 0-.3 0-.4-.1s-.2-.2-.2-.4v-1.5h6v7.4c-.5.4-1 .7-1.5.9-.5.3-1.1.5-1.7.7s-1.2.3-1.9.4-1.4.1-2.2.1c-1.4 0-2.7-.2-3.9-.7s-2.2-1.2-3-2c-.8-.9-1.5-1.9-2-3.1s-.7-2.6-.7-4c0-1.5.2-2.8.7-4s1.1-2.3 2-3.1 1.9-1.5 3.1-2 2.6-.7 4.1-.7c.8 0 1.5.1 2.1.2s1.3.3 1.8.5c.6.2 1.1.5 1.6.8a6.42 6.42 0 0 1 1.3 1l-.7 1.2c-.2.2-.4.4-.6.4-.1 0-.3 0-.5-.1s-.5-.3-.8-.5-.6-.4-1-.5c-.4-.2-.9-.3-1.4-.4s-1.2-.2-1.9-.2c-1.1 0-2.1.2-3 .5-.9.4-1.6.9-2.3 1.5s-1.1 1.5-1.4 2.4-.5 2-.5 3.2.2 2.3.5 3.3.8 1.8 1.5 2.4c.6.7 1.4 1.2 2.2 1.5 1 .2 1.9.4 3 .4zm32.3-7.8c0 1.5-.2 2.8-.7 4s-1.1 2.3-1.9 3.1-1.8 1.6-3 2c-1.2.5-2.5.7-3.9.7s-2.7-.2-3.9-.7-2.2-1.2-3-2c-.8-.9-1.5-1.9-1.9-3.1-.5-1.2-.7-2.5-.7-4s.2-2.8.7-4 1.1-2.3 1.9-3.1c.8-.9 1.8-1.6 3-2 1.2-.5 2.5-.7 3.9-.7s2.7.2 3.9.7 2.2 1.2 3 2a8.11 8.11 0 0 1 1.9 3.1c.4 1.2.7 2.5.7 4zm-2.7 0c0-1.2-.2-2.3-.5-3.2s-.8-1.7-1.4-2.4-1.3-1.2-2.2-1.5c-.8-.4-1.8-.5-2.8-.5a8.21 8.21 0 0 0-2.8.5c-.8.4-1.6.9-2.2 1.5-.6.7-1.1 1.5-1.4 2.4s-.5 2-.5 3.2.2 2.3.5 3.2.8 1.7 1.4 2.4 1.3 1.2 2.2 1.5a8.21 8.21 0 0 0 2.8.5 8.21 8.21 0 0 0 2.8-.5c.8-.3 1.6-.8 2.2-1.5s1.1-1.5 1.4-2.4c.3-1 .5-2 .5-3.2zm34.4 0c0 1.5-.2 2.8-.7 4s-1.1 2.2-1.9 3.1c-.8.8-1.8 1.5-3 2s-2.5.7-3.9.7H428v-19.4h7.2c1.4 0 2.7.2 3.9.7s2.2 1.1 3 2 1.5 1.9 1.9 3.1c.5 1 .7 2.3.7 3.8zm-2.7 0c0-1.2-.2-2.3-.5-3.2s-.8-1.7-1.4-2.4c-.6-.6-1.3-1.1-2.2-1.5a8.21 8.21 0 0 0-2.8-.5h-4.6v15.1h4.6a8.21 8.21 0 0 0 2.8-.5c.8-.3 1.6-.8 2.2-1.5.6-.6 1.1-1.4 1.4-2.4.4-.9.5-1.9.5-3.1zm12.5 9.7h-2.6v-19.4h2.6v19.4zm16.9-1.9c.5 0 1 0 1.4-.1.4 0 .8-.1 1.2-.2s.8-.2 1.1-.4a4.67 4.67 0 0 0 1-.5v-4.3h-3c-.2 0-.3 0-.4-.1s-.2-.2-.2-.4v-1.5h6v7.4c-.5.4-1 .7-1.5.9-.5.3-1.1.5-1.7.7s-1.2.3-1.9.4-1.4.1-2.2.1c-1.4 0-2.7-.2-3.9-.7s-2.2-1.2-3-2c-.8-.9-1.5-1.9-2-3.1s-.7-2.6-.7-4c0-1.5.2-2.8.7-4s1.1-2.3 2-3.1 1.9-1.5 3.1-2 2.6-.7 4.1-.7c.8 0 1.5.1 2.1.2.7.1 1.3.3 1.8.5a11.94 11.94 0 0 1 1.6.8 6.42 6.42 0 0 1 1.3 1l-.7 1.2c-.2.2-.4.4-.6.4-.1 0-.3 0-.5-.1s-.5-.3-.8-.5-.6-.4-1-.5c-.4-.2-.9-.3-1.4-.4s-1.2-.2-1.9-.2c-1.1 0-2.1.2-3 .5-.9.4-1.6.9-2.3 1.5s-1.1 1.5-1.4 2.4-.5 2-.5 3.2.2 2.3.5 3.3.8 1.8 1.5 2.4c.6.7 1.4 1.2 2.2 1.5 1 .2 2 .4 3 .4zm17.4 1.9h-2.6v-19.4h2.6v19.4zm21.5-19.4v2.2H504v17.2h-2.6v-17.2h-6.3v-2.2h15.2zm20 19.4h-2c-.2 0-.4-.1-.6-.2s-.3-.3-.3-.4l-1.8-4.7h-8.7l-1.8 4.7c-.1.2-.2.3-.3.4-.2.1-.3.2-.6.2h-2l7.7-19.4h2.7l7.7 19.4zm-12.7-7.2h7.2l-3-7.9a18.88 18.88 0 0 1-.6-1.8l-.3 1-.3.8-3 7.9zm20.8 5h8.4v2.2h-11v-19.4h2.6v17.2zm14 .7c0-.2 0-.5.1-.7s.2-.4.4-.5c.1-.2.3-.3.5-.4s.4-.1.7-.1.5 0 .7.1.4.2.5.4.3.3.4.5.1.4.1.7c0 .2 0 .5-.1.7s-.2.4-.4.5c-.2.2-.3.3-.5.4s-.4.1-.7.1-.5 0-.7-.1-.4-.2-.5-.4-.3-.3-.4-.5-.1-.5-.1-.7zm26.9-.4c.5 0 1 0 1.4-.1.4 0 .8-.1 1.2-.2s.8-.2 1.1-.4a4.67 4.67 0 0 0 1-.5v-4.3h-3c-.2 0-.3 0-.4-.1s-.2-.2-.2-.4v-1.5h6v7.4c-.5.4-1 .7-1.5.9-.5.3-1.1.5-1.7.7s-1.2.3-1.9.4-1.4.1-2.2.1c-1.4 0-2.7-.2-3.9-.7s-2.2-1.2-3-2c-.8-.9-1.5-1.9-2-3.1s-.7-2.6-.7-4c0-1.5.2-2.8.7-4s1.1-2.3 2-3.1 1.9-1.5 3.1-2 2.6-.7 4.1-.7c.8 0 1.5.1 2.1.2.7.1 1.3.3 1.8.5a11.94 11.94 0 0 1 1.6.8 6.42 6.42 0 0 1 1.3 1l-.7 1.2c-.2.2-.4.4-.6.4-.1 0-.3 0-.5-.1s-.5-.3-.8-.5-.6-.4-1-.5c-.4-.2-.9-.3-1.4-.4s-1.2-.2-1.9-.2c-1.1 0-2.1.2-3 .5-.9.4-1.6.9-2.3 1.5s-1.1 1.5-1.4 2.4-.5 2-.5 3.2.2 2.3.5 3.3.8 1.8 1.5 2.4c.6.7 1.4 1.2 2.2 1.5 1 .2 1.9.4 3 .4zm32.3-7.8c0 1.5-.2 2.8-.7 4s-1.1 2.3-1.9 3.1c-.8.9-1.8 1.6-3 2-1.2.5-2.5.7-3.9.7s-2.7-.2-3.9-.7-2.2-1.2-3-2c-.8-.9-1.5-1.9-1.9-3.1-.5-1.2-.7-2.5-.7-4s.2-2.8.7-4 1.1-2.3 1.9-3.1c.8-.9 1.8-1.6 3-2s2.5-.7 3.9-.7 2.7.2 3.9.7 2.2 1.2 3 2c.8.9 1.5 1.9 1.9 3.1.5 1.2.7 2.5.7 4zm-2.7 0c0-1.2-.2-2.3-.5-3.2s-.8-1.7-1.4-2.4-1.3-1.2-2.2-1.5c-.8-.4-1.8-.5-2.8-.5a8.21 8.21 0 0 0-2.8.5c-.8.4-1.6.9-2.2 1.5-.6.7-1.1 1.5-1.4 2.4s-.5 2-.5 3.2.2 2.3.5 3.2.8 1.7 1.4 2.4 1.3 1.2 2.2 1.5a8.21 8.21 0 0 0 2.8.5 8.21 8.21 0 0 0 2.8-.5c.8-.3 1.6-.8 2.2-1.5s1.1-1.5 1.4-2.4c.3-1 .5-2 .5-3.2zm20.8 9.7H627v-19.4h2.6v19.4zm26.2-9.7c0 1.5-.2 2.8-.7 4s-1.1 2.3-1.9 3.1c-.8.9-1.8 1.6-3 2-1.2.5-2.5.7-3.9.7s-2.7-.2-3.9-.7-2.2-1.2-3-2c-.8-.9-1.5-1.9-1.9-3.1-.5-1.2-.7-2.5-.7-4s.2-2.8.7-4 1.1-2.3 1.9-3.1c.8-.9 1.8-1.6 3-2s2.5-.7 3.9-.7 2.7.2 3.9.7 2.2 1.2 3 2c.8.9 1.5 1.9 1.9 3.1.5 1.2.7 2.5.7 4zm-2.6 0c0-1.2-.2-2.3-.5-3.2s-.8-1.7-1.4-2.4-1.3-1.2-2.2-1.5c-.8-.4-1.8-.5-2.8-.5a8.21 8.21 0 0 0-2.8.5c-.8.4-1.6.9-2.2 1.5-.6.7-1.1 1.5-1.4 2.4s-.5 2-.5 3.2.2 2.3.5 3.2.8 1.7 1.4 2.4 1.3 1.2 2.2 1.5a8.21 8.21 0 0 0 2.8.5 8.21 8.21 0 0 0 2.8-.5c.8-.3 1.6-.8 2.2-1.5s1.1-1.5 1.4-2.4c.3-1 .5-2 .5-3.2zm21.2-9.7v2.2h-6.3v17.2h-2.6v-17.2h-6.3v-2.2h15.2z"/><g stroke-miterlimit="10"><path d="M379.4 271.4h510" stroke="#fcfdff" stroke-width="5.409"/><path d="M695.8 158.4h190" stroke="#f9f9f9" stroke-width="3.606"/></g></g><defs ><path id="B" d="M81.5 232c-5.6 0-10.4 4.8-10.6 10.6-.3 5.9 4.1 10.6 9.7 10.6s10.4-4.8 10.6-10.6-4.1-10.6-9.7-10.6zm-.8 17.4c-3.5 0-6.3-3-6.1-6.7s3.2-6.7 6.7-6.7 6.3 3 6.1 6.7c-.1 3.7-3.1 6.7-6.7 6.7z"/><path id="C" d="M207.9 283.3c-5.6 0-10.4 4.8-10.6 10.6-.3 5.9 4.1 10.6 9.7 10.6s10.4-4.8 10.6-10.6c.3-5.8-4.1-10.6-9.7-10.6zm-.7 17.4c-3.5 0-6.3-3-6.1-6.7s3.2-6.7 6.7-6.7 6.3 3 6.1 6.7-3.2 6.7-6.7 6.7z"/><path id="D" d="M294.5 279.4c-5.6 0-10.4 4.8-10.6 10.6-.3 5.9 4.1 10.6 9.7 10.6s10.4-4.8 10.6-10.6-4.1-10.6-9.7-10.6zm-.7 17.4c-3.5 0-6.3-3-6.1-6.7s3.2-6.7 6.7-6.7 6.3 3 6.1 6.7-3.2 6.7-6.7 6.7z"/><path id="E" d="M294.7 129.1c-5.6 0-10.4 4.8-10.6 10.6-.3 5.9 4.1 10.6 9.7 10.6s10.4-4.8 10.6-10.6-4.1-10.6-9.7-10.6zm-.8 17.4c-3.5 0-6.3-3-6.1-6.7s3.2-6.7 6.7-6.7 6.3 3 6.1 6.7c-.1 3.7-3.2 6.7-6.7 6.7z"/></defs></svg>